# xmcd CD database file
#
# Track frame offsets:
#	150
#	13923
#	27396
#	42444
#	61992
#	78465
#	93738
#	109761
#	126459
#	146082
#	163455
#	185028
#	203001
#	220824
#	236922
#
# Disc length: 3357 seconds
#
# Revision: 2
# Processed by: cddbd v1.5.2PL0 Copyright (c) Steve Scherf et al.
# Submitted via: CDex 1.51
#
DISCID=ea0d1b0f
DTITLE=Brooks and Dunn - Number 1's_Disc 1
DYEAR=2009
DGENRE=Country
TTITLE0=Honky Tonk Stomp
TTITLE1=Brand New Man
TTITLE2=Ain't Nothing 'Bout You
TTITLE3=Hillbilly Deluxe
TTITLE4=How Long Gone
TTITLE5=She's Not the Cheatin' Kind
TTITLE6=A Man This Lonely
TTITLE7=Rock My World
TTITLE8=Red Dirt Road
TTITLE9=The Long Goodbye
TTITLE10=You're Gonna Miss Me When I'm Gone
TTITLE11=If You See Him - If You See Her
TTITLE12=She Used to Be Mine
TTITLE13=That Ain't No Way to Go
TTITLE14=Boot Scootin' Boogie
EXTD=YEAR: 2009
EXTT0=
EXTT1=
EXTT2=
EXTT3=
EXTT4=
EXTT5=
EXTT6=
EXTT7=
EXTT8=
EXTT9=
EXTT10=
EXTT11=
EXTT12=
EXTT13=
EXTT14=
PLAYORDER=
